<svg width="120" height="60" viewBox="0 0 120 60" fill="none" xmlns="http://www.w3.org/2000/svg">
<mask id="mask0_711_17" style="mask-type:alpha" maskUnits="userSpaceOnUse" x="0" y="7" width="120" height="47">
<rect y="7" width="120" height="46.5" rx="23.25" fill="#D9D9D9"/>
</mask>
<g mask="url(#mask0_711_17)">
<rect width="120" height="60" fill="#5865F2"/>
<path d="M39.3535 34.9512C39.3535 37.3887 38.5156 39.1758 36.8398 40.3125C35.1641 41.4375 32.8379 42 29.8613 42H20.7207V17.6719H29.3164C32.4336 17.6719 34.666 18.1289 36.0137 19.043C37.3613 19.9453 38.0352 21.3809 38.0352 23.3496C38.0352 24.8613 37.666 26.0859 36.9277 27.0234C36.2012 27.9609 35.0586 28.5879 33.5 28.9043C35.5391 29.1855 37.0215 29.8301 37.9473 30.8379C38.8848 31.8457 39.3535 33.2168 39.3535 34.9512ZM33.0254 24.4395C33.0254 23.5137 32.6855 22.875 32.0059 22.5234C31.3262 22.1602 30.2715 21.9785 28.8418 21.9785H25.6777V27.1992H28.7012C30.166 27.1992 31.25 26.9941 31.9531 26.584C32.668 26.1738 33.0254 25.459 33.0254 24.4395ZM34.291 34.5117C34.291 33.4219 33.9219 32.6543 33.1836 32.209C32.4453 31.752 31.0625 31.5234 29.0352 31.5234H25.6777V37.6055H28.1914C30.125 37.6055 31.4551 37.5117 32.1816 37.3242C32.9199 37.1367 33.4531 36.8203 33.7812 36.375C34.1211 35.9297 34.291 35.3086 34.291 34.5117ZM43.5371 42V17.6719H59.3398V22.0488H48.4941V27.2344H57.6348V31.6289H48.4941V37.4648H59.3398V42H43.5371ZM74.1758 22.207V42H69.2188V22.207H61.7305V17.6719H81.6641V22.207H74.1758ZM79.8711 42L87.9219 17.6719H94.373L102.441 42H97.3613L95.7441 37.0605H86.375L84.793 42H79.8711ZM87.7812 32.7188H94.3379L91.0684 22.6641L87.7812 32.7188Z" fill="white"/>
</g>
</svg>
